<svg data-v-849d7cbf="" class="site-icon" version="1.1" viewBox="0 0 50 50" xmlns="http://www.w3.org/2000/svg"><g><rect class="site-icon-cell" x="1" y="1" width="8" height="8" style="fill: rgb(239, 239, 239);"/><rect class="site-icon-cell" x="11" y="1" width="8" height="8" style="fill: rgb(239, 239, 239);"/><rect class="site-icon-cell" x="21" y="1" width="8" height="8" style="fill: rgb(239, 239, 239);"/><rect class="site-icon-cell" x="31" y="1" width="8" height="8" style="fill: rgb(239, 239, 239);"/><rect class="site-icon-cell" x="41" y="1" width="8" height="8" style="fill: rgb(239, 239, 239);"/><rect class="site-icon-cell" x="1" y="11" width="8" height="8" style="fill: rgb(64, 54, 113);"/><rect class="site-icon-cell" x="11" y="11" width="8" height="8" style="fill: rgb(64, 54, 113);"/><rect class="site-icon-cell" x="21" y="11" width="8" height="8" style="fill: rgb(64, 54, 113);"/><rect class="site-icon-cell" x="31" y="11" width="8" height="8" style="fill: rgb(64, 54, 113);"/><rect class="site-icon-cell" x="41" y="11" width="8" height="8" style="fill: rgb(64, 54, 113);"/><rect class="site-icon-cell" x="1" y="21" width="8" height="8" style="fill: rgb(239, 239, 239);"/><rect class="site-icon-cell" x="11" y="21" width="8" height="8" style="fill: rgb(64, 54, 113);"/><rect class="site-icon-cell" x="21" y="21" width="8" height="8" style="fill: rgb(64, 54, 113);"/><rect class="site-icon-cell" x="31" y="21" width="8" height="8" style="fill: rgb(64, 54, 113);"/><rect class="site-icon-cell" x="41" y="21" width="8" height="8" style="fill: rgb(239, 239, 239);"/><rect class="site-icon-cell" x="1" y="31" width="8" height="8" style="fill: rgb(239, 239, 239);"/><rect class="site-icon-cell" x="11" y="31" width="8" height="8" style="fill: rgb(239, 239, 239);"/><rect class="site-icon-cell" x="21" y="31" width="8" height="8" style="fill: rgb(64, 54, 113);"/><rect class="site-icon-cell" x="31" y="31" width="8" height="8" style="fill: rgb(239, 239, 239);"/><rect class="site-icon-cell" x="41" y="31" width="8" height="8" style="fill: rgb(239, 239, 239);"/><rect class="site-icon-cell" x="1" y="41" width="8" height="8" style="fill: rgb(239, 239, 239);"/><rect class="site-icon-cell" x="11" y="41" width="8" height="8" style="fill: rgb(239, 239, 239);"/><rect class="site-icon-cell" x="21" y="41" width="8" height="8" style="fill: rgb(239, 239, 239);"/><rect class="site-icon-cell" x="31" y="41" width="8" height="8" style="fill: rgb(239, 239, 239);"/><rect class="site-icon-cell" x="41" y="41" width="8" height="8" style="fill: rgb(239, 239, 239);"/></g></svg>