<svg data-v-849d7cbf="" class="site-icon" version="1.1" viewBox="0 0 90 90" xmlns="http://www.w3.org/2000/svg"><g><rect class="site-icon-cell" x="1" y="1" width="8" height="8" style="fill: rgb(239, 239, 239);"/><rect class="site-icon-cell" x="11" y="1" width="8" height="8" style="fill: rgb(239, 239, 239);"/><rect class="site-icon-cell" x="21" y="1" width="8" height="8" style="fill: rgb(239, 239, 239);"/><rect class="site-icon-cell" x="31" y="1" width="8" height="8" style="fill: rgb(239, 239, 239);"/><rect class="site-icon-cell" x="41" y="1" width="8" height="8" style="fill: rgb(239, 239, 239);"/><rect class="site-icon-cell" x="51" y="1" width="8" height="8" style="fill: rgb(239, 239, 239);"/><rect class="site-icon-cell" x="61" y="1" width="8" height="8" style="fill: rgb(239, 239, 239);"/><rect class="site-icon-cell" x="71" y="1" width="8" height="8" style="fill: rgb(239, 239, 239);"/><rect class="site-icon-cell" x="81" y="1" width="8" height="8" style="fill: rgb(239, 239, 239);"/><rect class="site-icon-cell" x="1" y="11" width="8" height="8" style="fill: rgb(239, 239, 239);"/><rect class="site-icon-cell" x="11" y="11" width="8" height="8" style="fill: rgb(64, 54, 113);"/><rect class="site-icon-cell" x="21" y="11" width="8" height="8" style="fill: rgb(64, 54, 113);"/><rect class="site-icon-cell" x="31" y="11" width="8" height="8" style="fill: rgb(239, 239, 239);"/><rect class="site-icon-cell" x="41" y="11" width="8" height="8" style="fill: rgb(239, 239, 239);"/><rect class="site-icon-cell" x="51" y="11" width="8" height="8" style="fill: rgb(239, 239, 239);"/><rect class="site-icon-cell" x="61" y="11" width="8" height="8" style="fill: rgb(64, 54, 113);"/><rect class="site-icon-cell" x="71" y="11" width="8" height="8" style="fill: rgb(64, 54, 113);"/><rect class="site-icon-cell" x="81" y="11" width="8" height="8" style="fill: rgb(239, 239, 239);"/><rect class="site-icon-cell" x="1" y="21" width="8" height="8" style="fill: rgb(64, 54, 113);"/><rect class="site-icon-cell" x="11" y="21" width="8" height="8" style="fill: rgb(148, 142, 173);"/><rect class="site-icon-cell" x="21" y="21" width="8" height="8" style="fill: rgb(78, 68, 123);"/><rect class="site-icon-cell" x="31" y="21" width="8" height="8" style="fill: rgb(64, 54, 113);"/><rect class="site-icon-cell" x="41" y="21" width="8" height="8" style="fill: rgb(239, 239, 239);"/><rect class="site-icon-cell" x="51" y="21" width="8" height="8" style="fill: rgb(64, 54, 113);"/><rect class="site-icon-cell" x="61" y="21" width="8" height="8" style="fill: rgb(180, 177, 197);"/><rect class="site-icon-cell" x="71" y="21" width="8" height="8" style="fill: rgb(170, 166, 189);"/><rect class="site-icon-cell" x="81" y="21" width="8" height="8" style="fill: rgb(64, 54, 113);"/><rect class="site-icon-cell" x="1" y="31" width="8" height="8" style="fill: rgb(64, 54, 113);"/><rect class="site-icon-cell" x="11" y="31" width="8" height="8" style="fill: rgb(218, 216, 224);"/><rect class="site-icon-cell" x="21" y="31" width="8" height="8" style="fill: rgb(152, 147, 176);"/><rect class="site-icon-cell" x="31" y="31" width="8" height="8" style="fill: rgb(100, 92, 139);"/><rect class="site-icon-cell" x="41" y="31" width="8" height="8" style="fill: rgb(64, 54, 113);"/><rect class="site-icon-cell" x="51" y="31" width="8" height="8" style="fill: rgb(159, 154, 181);"/><rect class="site-icon-cell" x="61" y="31" width="8" height="8" style="fill: rgb(222, 221, 227);"/><rect class="site-icon-cell" x="71" y="31" width="8" height="8" style="fill: rgb(165, 161, 186);"/><rect class="site-icon-cell" x="81" y="31" width="8" height="8" style="fill: rgb(64, 54, 113);"/><rect class="site-icon-cell" x="1" y="41" width="8" height="8" style="fill: rgb(64, 54, 113);"/><rect class="site-icon-cell" x="11" y="41" width="8" height="8" style="fill: rgb(187, 184, 202);"/><rect class="site-icon-cell" x="21" y="41" width="8" height="8" style="fill: rgb(130, 124, 161);"/><rect class="site-icon-cell" x="31" y="41" width="8" height="8" style="fill: rgb(207, 205, 216);"/><rect class="site-icon-cell" x="41" y="41" width="8" height="8" style="fill: rgb(198, 196, 209);"/><rect class="site-icon-cell" x="51" y="41" width="8" height="8" style="fill: rgb(185, 182, 200);"/><rect class="site-icon-cell" x="61" y="41" width="8" height="8" style="fill: rgb(226, 226, 230);"/><rect class="site-icon-cell" x="71" y="41" width="8" height="8" style="fill: rgb(237, 237, 238);"/><rect class="site-icon-cell" x="81" y="41" width="8" height="8" style="fill: rgb(64, 54, 113);"/><rect class="site-icon-cell" x="1" y="51" width="8" height="8" style="fill: rgb(239, 239, 239);"/><rect class="site-icon-cell" x="11" y="51" width="8" height="8" style="fill: rgb(64, 54, 113);"/><rect class="site-icon-cell" x="21" y="51" width="8" height="8" style="fill: rgb(200, 198, 211);"/><rect class="site-icon-cell" x="31" y="51" width="8" height="8" style="fill: rgb(106, 99, 143);"/><rect class="site-icon-cell" x="41" y="51" width="8" height="8" style="fill: rgb(183, 179, 198);"/><rect class="site-icon-cell" x="51" y="51" width="8" height="8" style="fill: rgb(95, 87, 135);"/><rect class="site-icon-cell" x="61" y="51" width="8" height="8" style="fill: rgb(115, 108, 150);"/><rect class="site-icon-cell" x="71" y="51" width="8" height="8" style="fill: rgb(64, 54, 113);"/><rect class="site-icon-cell" x="81" y="51" width="8" height="8" style="fill: rgb(239, 239, 239);"/><rect class="site-icon-cell" x="1" y="61" width="8" height="8" style="fill: rgb(239, 239, 239);"/><rect class="site-icon-cell" x="11" y="61" width="8" height="8" style="fill: rgb(239, 239, 239);"/><rect class="site-icon-cell" x="21" y="61" width="8" height="8" style="fill: rgb(64, 54, 113);"/><rect class="site-icon-cell" x="31" y="61" width="8" height="8" style="fill: rgb(86, 78, 129);"/><rect class="site-icon-cell" x="41" y="61" width="8" height="8" style="fill: rgb(141, 136, 169);"/><rect class="site-icon-cell" x="51" y="61" width="8" height="8" style="fill: rgb(139, 133, 167);"/><rect class="site-icon-cell" x="61" y="61" width="8" height="8" style="fill: rgb(64, 54, 113);"/><rect class="site-icon-cell" x="71" y="61" width="8" height="8" style="fill: rgb(239, 239, 239);"/><rect class="site-icon-cell" x="81" y="61" width="8" height="8" style="fill: rgb(239, 239, 239);"/><rect class="site-icon-cell" x="1" y="71" width="8" height="8" style="fill: rgb(239, 239, 239);"/><rect class="site-icon-cell" x="11" y="71" width="8" height="8" style="fill: rgb(239, 239, 239);"/><rect class="site-icon-cell" x="21" y="71" width="8" height="8" style="fill: rgb(239, 239, 239);"/><rect class="site-icon-cell" x="31" y="71" width="8" height="8" style="fill: rgb(64, 54, 113);"/><rect class="site-icon-cell" x="41" y="71" width="8" height="8" style="fill: rgb(205, 203, 214);"/><rect class="site-icon-cell" x="51" y="71" width="8" height="8" style="fill: rgb(64, 54, 113);"/><rect class="site-icon-cell" x="61" y="71" width="8" height="8" style="fill: rgb(239, 239, 239);"/><rect class="site-icon-cell" x="71" y="71" width="8" height="8" style="fill: rgb(239, 239, 239);"/><rect class="site-icon-cell" x="81" y="71" width="8" height="8" style="fill: rgb(239, 239, 239);"/><rect class="site-icon-cell" x="1" y="81" width="8" height="8" style="fill: rgb(239, 239, 239);"/><rect class="site-icon-cell" x="11" y="81" width="8" height="8" style="fill: rgb(239, 239, 239);"/><rect class="site-icon-cell" x="21" y="81" width="8" height="8" style="fill: rgb(239, 239, 239);"/><rect class="site-icon-cell" x="31" y="81" width="8" height="8" style="fill: rgb(239, 239, 239);"/><rect class="site-icon-cell" x="41" y="81" width="8" height="8" style="fill: rgb(64, 54, 113);"/><rect class="site-icon-cell" x="51" y="81" width="8" height="8" style="fill: rgb(239, 239, 239);"/><rect class="site-icon-cell" x="61" y="81" width="8" height="8" style="fill: rgb(239, 239, 239);"/><rect class="site-icon-cell" x="71" y="81" width="8" height="8" style="fill: rgb(239, 239, 239);"/><rect class="site-icon-cell" x="81" y="81" width="8" height="8" style="fill: rgb(239, 239, 239);"/></g></svg>