<svg data-v-849d7cbf="" class="site-icon" version="1.1" viewBox="0 0 130 130" xmlns="http://www.w3.org/2000/svg"><g><rect class="site-icon-cell" x="1" y="1" width="8" height="8" style="fill: rgb(64, 54, 113);"/><rect class="site-icon-cell" x="11" y="1" width="8" height="8" style="fill: rgb(64, 54, 113);"/><rect class="site-icon-cell" x="21" y="1" width="8" height="8" style="fill: rgb(64, 54, 113);"/><rect class="site-icon-cell" x="31" y="1" width="8" height="8" style="fill: rgb(64, 54, 113);"/><rect class="site-icon-cell" x="41" y="1" width="8" height="8" style="fill: rgb(64, 54, 113);"/><rect class="site-icon-cell" x="51" y="1" width="8" height="8" style="fill: rgb(64, 54, 113);"/><rect class="site-icon-cell" x="61" y="1" width="8" height="8" style="fill: rgb(64, 54, 113);"/><rect class="site-icon-cell" x="71" y="1" width="8" height="8" style="fill: rgb(64, 54, 113);"/><rect class="site-icon-cell" x="81" y="1" width="8" height="8" style="fill: rgb(64, 54, 113);"/><rect class="site-icon-cell" x="91" y="1" width="8" height="8" style="fill: rgb(64, 54, 113);"/><rect class="site-icon-cell" x="101" y="1" width="8" height="8" style="fill: rgb(64, 54, 113);"/><rect class="site-icon-cell" x="111" y="1" width="8" height="8" style="fill: rgb(64, 54, 113);"/><rect class="site-icon-cell" x="121" y="1" width="8" height="8" style="fill: rgb(64, 54, 113);"/><rect class="site-icon-cell" x="1" y="11" width="8" height="8" style="fill: rgb(64, 54, 113);"/><rect class="site-icon-cell" x="11" y="11" width="8" height="8" style="fill: rgb(239, 239, 239);"/><rect class="site-icon-cell" x="21" y="11" width="8" height="8" style="fill: rgb(239, 239, 239);"/><rect class="site-icon-cell" x="31" y="11" width="8" height="8" style="fill: rgb(239, 239, 239);"/><rect class="site-icon-cell" x="41" y="11" width="8" height="8" style="fill: rgb(239, 239, 239);"/><rect class="site-icon-cell" x="51" y="11" width="8" height="8" style="fill: rgb(239, 239, 239);"/><rect class="site-icon-cell" x="61" y="11" width="8" height="8" style="fill: rgb(239, 239, 239);"/><rect class="site-icon-cell" x="71" y="11" width="8" height="8" style="fill: rgb(239, 239, 239);"/><rect class="site-icon-cell" x="81" y="11" width="8" height="8" style="fill: rgb(239, 239, 239);"/><rect class="site-icon-cell" x="91" y="11" width="8" height="8" style="fill: rgb(239, 239, 239);"/><rect class="site-icon-cell" x="101" y="11" width="8" height="8" style="fill: rgb(239, 239, 239);"/><rect class="site-icon-cell" x="111" y="11" width="8" height="8" style="fill: rgb(239, 239, 239);"/><rect class="site-icon-cell" x="121" y="11" width="8" height="8" style="fill: rgb(64, 54, 113);"/><rect class="site-icon-cell" x="1" y="21" width="8" height="8" style="fill: rgb(64, 54, 113);"/><rect class="site-icon-cell" x="11" y="21" width="8" height="8" style="fill: rgb(239, 239, 239);"/><rect class="site-icon-cell" x="21" y="21" width="8" height="8" style="fill: rgb(239, 239, 239);"/><rect class="site-icon-cell" x="31" y="21" width="8" height="8" style="fill: rgb(64, 54, 113);"/><rect class="site-icon-cell" x="41" y="21" width="8" height="8" style="fill: rgb(64, 54, 113);"/><rect class="site-icon-cell" x="51" y="21" width="8" height="8" style="fill: rgb(239, 239, 239);"/><rect class="site-icon-cell" x="61" y="21" width="8" height="8" style="fill: rgb(239, 239, 239);"/><rect class="site-icon-cell" x="71" y="21" width="8" height="8" style="fill: rgb(239, 239, 239);"/><rect class="site-icon-cell" x="81" y="21" width="8" height="8" style="fill: rgb(239, 239, 239);"/><rect class="site-icon-cell" x="91" y="21" width="8" height="8" style="fill: rgb(239, 239, 239);"/><rect class="site-icon-cell" x="101" y="21" width="8" height="8" style="fill: rgb(239, 239, 239);"/><rect class="site-icon-cell" x="111" y="21" width="8" height="8" style="fill: rgb(239, 239, 239);"/><rect class="site-icon-cell" x="121" y="21" width="8" height="8" style="fill: rgb(64, 54, 113);"/><rect class="site-icon-cell" x="1" y="31" width="8" height="8" style="fill: rgb(64, 54, 113);"/><rect class="site-icon-cell" x="11" y="31" width="8" height="8" style="fill: rgb(239, 239, 239);"/><rect class="site-icon-cell" x="21" y="31" width="8" height="8" style="fill: rgb(64, 54, 113);"/><rect class="site-icon-cell" x="31" y="31" width="8" height="8" style="fill: rgb(239, 239, 239);"/><rect class="site-icon-cell" x="41" y="31" width="8" height="8" style="fill: rgb(239, 239, 239);"/><rect class="site-icon-cell" x="51" y="31" width="8" height="8" style="fill: rgb(64, 54, 113);"/><rect class="site-icon-cell" x="61" y="31" width="8" height="8" style="fill: rgb(239, 239, 239);"/><rect class="site-icon-cell" x="71" y="31" width="8" height="8" style="fill: rgb(239, 239, 239);"/><rect class="site-icon-cell" x="81" y="31" width="8" height="8" style="fill: rgb(239, 239, 239);"/><rect class="site-icon-cell" x="91" y="31" width="8" height="8" style="fill: rgb(239, 239, 239);"/><rect class="site-icon-cell" x="101" y="31" width="8" height="8" style="fill: rgb(239, 239, 239);"/><rect class="site-icon-cell" x="111" y="31" width="8" height="8" style="fill: rgb(239, 239, 239);"/><rect class="site-icon-cell" x="121" y="31" width="8" height="8" style="fill: rgb(64, 54, 113);"/><rect class="site-icon-cell" x="1" y="41" width="8" height="8" style="fill: rgb(64, 54, 113);"/><rect class="site-icon-cell" x="11" y="41" width="8" height="8" style="fill: rgb(239, 239, 239);"/><rect class="site-icon-cell" x="21" y="41" width="8" height="8" style="fill: rgb(64, 54, 113);"/><rect class="site-icon-cell" x="31" y="41" width="8" height="8" style="fill: rgb(239, 239, 239);"/><rect class="site-icon-cell" x="41" y="41" width="8" height="8" style="fill: rgb(239, 239, 239);"/><rect class="site-icon-cell" x="51" y="41" width="8" height="8" style="fill: rgb(64, 54, 113);"/><rect class="site-icon-cell" x="61" y="41" width="8" height="8" style="fill: rgb(239, 239, 239);"/><rect class="site-icon-cell" x="71" y="41" width="8" height="8" style="fill: rgb(239, 239, 239);"/><rect class="site-icon-cell" x="81" y="41" width="8" height="8" style="fill: rgb(239, 239, 239);"/><rect class="site-icon-cell" x="91" y="41" width="8" height="8" style="fill: rgb(239, 239, 239);"/><rect class="site-icon-cell" x="101" y="41" width="8" height="8" style="fill: rgb(239, 239, 239);"/><rect class="site-icon-cell" x="111" y="41" width="8" height="8" style="fill: rgb(239, 239, 239);"/><rect class="site-icon-cell" x="121" y="41" width="8" height="8" style="fill: rgb(64, 54, 113);"/><rect class="site-icon-cell" x="1" y="51" width="8" height="8" style="fill: rgb(64, 54, 113);"/><rect class="site-icon-cell" x="11" y="51" width="8" height="8" style="fill: rgb(239, 239, 239);"/><rect class="site-icon-cell" x="21" y="51" width="8" height="8" style="fill: rgb(239, 239, 239);"/><rect class="site-icon-cell" x="31" y="51" width="8" height="8" style="fill: rgb(64, 54, 113);"/><rect class="site-icon-cell" x="41" y="51" width="8" height="8" style="fill: rgb(64, 54, 113);"/><rect class="site-icon-cell" x="51" y="51" width="8" height="8" style="fill: rgb(239, 239, 239);"/><rect class="site-icon-cell" x="61" y="51" width="8" height="8" style="fill: rgb(239, 239, 239);"/><rect class="site-icon-cell" x="71" y="51" width="8" height="8" style="fill: rgb(239, 239, 239);"/><rect class="site-icon-cell" x="81" y="51" width="8" height="8" style="fill: rgb(239, 239, 239);"/><rect class="site-icon-cell" x="91" y="51" width="8" height="8" style="fill: rgb(239, 239, 239);"/><rect class="site-icon-cell" x="101" y="51" width="8" height="8" style="fill: rgb(64, 54, 113);"/><rect class="site-icon-cell" x="111" y="51" width="8" height="8" style="fill: rgb(239, 239, 239);"/><rect class="site-icon-cell" x="121" y="51" width="8" height="8" style="fill: rgb(64, 54, 113);"/><rect class="site-icon-cell" x="1" y="61" width="8" height="8" style="fill: rgb(64, 54, 113);"/><rect class="site-icon-cell" x="11" y="61" width="8" height="8" style="fill: rgb(239, 239, 239);"/><rect class="site-icon-cell" x="21" y="61" width="8" height="8" style="fill: rgb(239, 239, 239);"/><rect class="site-icon-cell" x="31" y="61" width="8" height="8" style="fill: rgb(239, 239, 239);"/><rect class="site-icon-cell" x="41" y="61" width="8" height="8" style="fill: rgb(239, 239, 239);"/><rect class="site-icon-cell" x="51" y="61" width="8" height="8" style="fill: rgb(239, 239, 239);"/><rect class="site-icon-cell" x="61" y="61" width="8" height="8" style="fill: rgb(239, 239, 239);"/><rect class="site-icon-cell" x="71" y="61" width="8" height="8" style="fill: rgb(239, 239, 239);"/><rect class="site-icon-cell" x="81" y="61" width="8" height="8" style="fill: rgb(239, 239, 239);"/><rect class="site-icon-cell" x="91" y="61" width="8" height="8" style="fill: rgb(64, 54, 113);"/><rect class="site-icon-cell" x="101" y="61" width="8" height="8" style="fill: rgb(239, 239, 239);"/><rect class="site-icon-cell" x="111" y="61" width="8" height="8" style="fill: rgb(64, 54, 113);"/><rect class="site-icon-cell" x="121" y="61" width="8" height="8" style="fill: rgb(64, 54, 113);"/><rect class="site-icon-cell" x="1" y="71" width="8" height="8" style="fill: rgb(64, 54, 113);"/><rect class="site-icon-cell" x="11" y="71" width="8" height="8" style="fill: rgb(239, 239, 239);"/><rect class="site-icon-cell" x="21" y="71" width="8" height="8" style="fill: rgb(239, 239, 239);"/><rect class="site-icon-cell" x="31" y="71" width="8" height="8" style="fill: rgb(239, 239, 239);"/><rect class="site-icon-cell" x="41" y="71" width="8" height="8" style="fill: rgb(64, 54, 113);"/><rect class="site-icon-cell" x="51" y="71" width="8" height="8" style="fill: rgb(239, 239, 239);"/><rect class="site-icon-cell" x="61" y="71" width="8" height="8" style="fill: rgb(239, 239, 239);"/><rect class="site-icon-cell" x="71" y="71" width="8" height="8" style="fill: rgb(239, 239, 239);"/><rect class="site-icon-cell" x="81" y="71" width="8" height="8" style="fill: rgb(64, 54, 113);"/><rect class="site-icon-cell" x="91" y="71" width="8" height="8" style="fill: rgb(239, 239, 239);"/><rect class="site-icon-cell" x="101" y="71" width="8" height="8" style="fill: rgb(239, 239, 239);"/><rect class="site-icon-cell" x="111" y="71" width="8" height="8" style="fill: rgb(239, 239, 239);"/><rect class="site-icon-cell" x="121" y="71" width="8" height="8" style="fill: rgb(64, 54, 113);"/><rect class="site-icon-cell" x="1" y="81" width="8" height="8" style="fill: rgb(64, 54, 113);"/><rect class="site-icon-cell" x="11" y="81" width="8" height="8" style="fill: rgb(239, 239, 239);"/><rect class="site-icon-cell" x="21" y="81" width="8" height="8" style="fill: rgb(239, 239, 239);"/><rect class="site-icon-cell" x="31" y="81" width="8" height="8" style="fill: rgb(64, 54, 113);"/><rect class="site-icon-cell" x="41" y="81" width="8" height="8" style="fill: rgb(239, 239, 239);"/><rect class="site-icon-cell" x="51" y="81" width="8" height="8" style="fill: rgb(64, 54, 113);"/><rect class="site-icon-cell" x="61" y="81" width="8" height="8" style="fill: rgb(239, 239, 239);"/><rect class="site-icon-cell" x="71" y="81" width="8" height="8" style="fill: rgb(64, 54, 113);"/><rect class="site-icon-cell" x="81" y="81" width="8" height="8" style="fill: rgb(239, 239, 239);"/><rect class="site-icon-cell" x="91" y="81" width="8" height="8" style="fill: rgb(239, 239, 239);"/><rect class="site-icon-cell" x="101" y="81" width="8" height="8" style="fill: rgb(239, 239, 239);"/><rect class="site-icon-cell" x="111" y="81" width="8" height="8" style="fill: rgb(239, 239, 239);"/><rect class="site-icon-cell" x="121" y="81" width="8" height="8" style="fill: rgb(64, 54, 113);"/><rect class="site-icon-cell" x="1" y="91" width="8" height="8" style="fill: rgb(64, 54, 113);"/><rect class="site-icon-cell" x="11" y="91" width="8" height="8" style="fill: rgb(239, 239, 239);"/><rect class="site-icon-cell" x="21" y="91" width="8" height="8" style="fill: rgb(64, 54, 113);"/><rect class="site-icon-cell" x="31" y="91" width="8" height="8" style="fill: rgb(239, 239, 239);"/><rect class="site-icon-cell" x="41" y="91" width="8" height="8" style="fill: rgb(239, 239, 239);"/><rect class="site-icon-cell" x="51" y="91" width="8" height="8" style="fill: rgb(239, 239, 239);"/><rect class="site-icon-cell" x="61" y="91" width="8" height="8" style="fill: rgb(64, 54, 113);"/><rect class="site-icon-cell" x="71" y="91" width="8" height="8" style="fill: rgb(239, 239, 239);"/><rect class="site-icon-cell" x="81" y="91" width="8" height="8" style="fill: rgb(239, 239, 239);"/><rect class="site-icon-cell" x="91" y="91" width="8" height="8" style="fill: rgb(239, 239, 239);"/><rect class="site-icon-cell" x="101" y="91" width="8" height="8" style="fill: rgb(239, 239, 239);"/><rect class="site-icon-cell" x="111" y="91" width="8" height="8" style="fill: rgb(239, 239, 239);"/><rect class="site-icon-cell" x="121" y="91" width="8" height="8" style="fill: rgb(64, 54, 113);"/><rect class="site-icon-cell" x="1" y="101" width="8" height="8" style="fill: rgb(64, 54, 113);"/><rect class="site-icon-cell" x="11" y="101" width="8" height="8" style="fill: rgb(64, 54, 113);"/><rect class="site-icon-cell" x="21" y="101" width="8" height="8" style="fill: rgb(239, 239, 239);"/><rect class="site-icon-cell" x="31" y="101" width="8" height="8" style="fill: rgb(239, 239, 239);"/><rect class="site-icon-cell" x="41" y="101" width="8" height="8" style="fill: rgb(239, 239, 239);"/><rect class="site-icon-cell" x="51" y="101" width="8" height="8" style="fill: rgb(239, 239, 239);"/><rect class="site-icon-cell" x="61" y="101" width="8" height="8" style="fill: rgb(239, 239, 239);"/><rect class="site-icon-cell" x="71" y="101" width="8" height="8" style="fill: rgb(64, 54, 113);"/><rect class="site-icon-cell" x="81" y="101" width="8" height="8" style="fill: rgb(239, 239, 239);"/><rect class="site-icon-cell" x="91" y="101" width="8" height="8" style="fill: rgb(239, 239, 239);"/><rect class="site-icon-cell" x="101" y="101" width="8" height="8" style="fill: rgb(239, 239, 239);"/><rect class="site-icon-cell" x="111" y="101" width="8" height="8" style="fill: rgb(239, 239, 239);"/><rect class="site-icon-cell" x="121" y="101" width="8" height="8" style="fill: rgb(64, 54, 113);"/><rect class="site-icon-cell" x="1" y="111" width="8" height="8" style="fill: rgb(64, 54, 113);"/><rect class="site-icon-cell" x="11" y="111" width="8" height="8" style="fill: rgb(239, 239, 239);"/><rect class="site-icon-cell" x="21" y="111" width="8" height="8" style="fill: rgb(239, 239, 239);"/><rect class="site-icon-cell" x="31" y="111" width="8" height="8" style="fill: rgb(239, 239, 239);"/><rect class="site-icon-cell" x="41" y="111" width="8" height="8" style="fill: rgb(239, 239, 239);"/><rect class="site-icon-cell" x="51" y="111" width="8" height="8" style="fill: rgb(239, 239, 239);"/><rect class="site-icon-cell" x="61" y="111" width="8" height="8" style="fill: rgb(239, 239, 239);"/><rect class="site-icon-cell" x="71" y="111" width="8" height="8" style="fill: rgb(239, 239, 239);"/><rect class="site-icon-cell" x="81" y="111" width="8" height="8" style="fill: rgb(64, 54, 113);"/><rect class="site-icon-cell" x="91" y="111" width="8" height="8" style="fill: rgb(239, 239, 239);"/><rect class="site-icon-cell" x="101" y="111" width="8" height="8" style="fill: rgb(239, 239, 239);"/><rect class="site-icon-cell" x="111" y="111" width="8" height="8" style="fill: rgb(239, 239, 239);"/><rect class="site-icon-cell" x="121" y="111" width="8" height="8" style="fill: rgb(64, 54, 113);"/><rect class="site-icon-cell" x="1" y="121" width="8" height="8" style="fill: rgb(64, 54, 113);"/><rect class="site-icon-cell" x="11" y="121" width="8" height="8" style="fill: rgb(64, 54, 113);"/><rect class="site-icon-cell" x="21" y="121" width="8" height="8" style="fill: rgb(64, 54, 113);"/><rect class="site-icon-cell" x="31" y="121" width="8" height="8" style="fill: rgb(64, 54, 113);"/><rect class="site-icon-cell" x="41" y="121" width="8" height="8" style="fill: rgb(64, 54, 113);"/><rect class="site-icon-cell" x="51" y="121" width="8" height="8" style="fill: rgb(64, 54, 113);"/><rect class="site-icon-cell" x="61" y="121" width="8" height="8" style="fill: rgb(64, 54, 113);"/><rect class="site-icon-cell" x="71" y="121" width="8" height="8" style="fill: rgb(64, 54, 113);"/><rect class="site-icon-cell" x="81" y="121" width="8" height="8" style="fill: rgb(64, 54, 113);"/><rect class="site-icon-cell" x="91" y="121" width="8" height="8" style="fill: rgb(64, 54, 113);"/><rect class="site-icon-cell" x="101" y="121" width="8" height="8" style="fill: rgb(64, 54, 113);"/><rect class="site-icon-cell" x="111" y="121" width="8" height="8" style="fill: rgb(64, 54, 113);"/><rect class="site-icon-cell" x="121" y="121" width="8" height="8" style="fill: rgb(64, 54, 113);"/></g></svg>